<?xml version="1.0" encoding="UTF-8" standalone="no"?>
<!-- Created with Inkscape (http://www.inkscape.org/) -->
<svg xmlns:dc="http://purl.org/dc/elements/1.1/" xmlns:cc="http://creativecommons.org/ns#" xmlns:rdf="http://www.w3.org/1999/02/22-rdf-syntax-ns#" xmlns:svg="http://www.w3.org/2000/svg" xmlns="http://www.w3.org/2000/svg" xmlns:xlink="http://www.w3.org/1999/xlink" xmlns:sodipodi="http://sodipodi.sourceforge.net/DTD/sodipodi-0.dtd" xmlns:inkscape="http://www.inkscape.org/namespaces/inkscape" width="203.19998mm" height="203.2mm" viewBox="0 0 719.99994 719.99999" id="svg5527" version="1.1" inkscape:version="0.91 r13725" sodipodi:docname="Logo Bier Biere - vector.svg">
  <title id="title6166">Logo Bier Biere</title>
  <defs id="defs5529">
    <linearGradient inkscape:collect="always" id="linearGradient6152">
      <stop style="stop-color:#d0d0d0;stop-opacity:0.76078433" offset="0" id="stop6154"/>
      <stop style="stop-color:#e78c11;stop-opacity:0;" offset="1" id="stop6156"/>
    </linearGradient>
    <linearGradient inkscape:collect="always" id="linearGradient6144">
      <stop style="stop-color:#e78c11;stop-opacity:0.9254902" offset="0" id="stop6146"/>
      <stop style="stop-color:#f8dcb4;stop-opacity:1" offset="1" id="stop6148"/>
    </linearGradient>
    <linearGradient inkscape:collect="always" xlink:href="#linearGradient6144" id="linearGradient6150" x1="-1448.209" y1="15.065395" x2="-1237.5731" y2="15.065395" gradientUnits="userSpaceOnUse" gradientTransform="matrix(0.92063492,0,0,0.92063492,-105.87488,-1.4896445)"/>
    <linearGradient inkscape:collect="always" xlink:href="#linearGradient6152" id="linearGradient6158" x1="-1432.5452" y1="-147.45944" x2="-1254.6027" y2="-147.45944" gradientUnits="userSpaceOnUse" gradientTransform="matrix(0.92063492,0,0,0.92063492,-105.87488,-1.4896445)"/>
  </defs>
  <sodipodi:namedview id="base" pagecolor="#ffffff" bordercolor="#666666" borderopacity="1.0" inkscape:pageopacity="0.0" inkscape:pageshadow="2" inkscape:zoom="0.7" inkscape:cx="720.63361" inkscape:cy="541.26377" inkscape:document-units="px" inkscape:current-layer="layer1" showgrid="false" fit-margin-top="0" fit-margin-left="0" fit-margin-right="0" fit-margin-bottom="0" inkscape:window-width="1728" inkscape:window-height="1089" inkscape:window-x="-8" inkscape:window-y="-8" inkscape:window-maximized="1"/>
  <metadata id="metadata5532">
    <rdf:RDF>
      <cc:Work rdf:about="">
        <dc:format>image/svg+xml</dc:format>
        <dc:type rdf:resource="http://purl.org/dc/dcmitype/StillImage"/>
        <dc:title>Logo Bier Biere</dc:title>
      </cc:Work>
    </rdf:RDF>
  </metadata>
  <g inkscape:label="Calque 1" inkscape:groupmode="layer" id="layer1" transform="translate(1694.0234,378.76953)">
    <path style="fill:#8a6c65;fill-opacity:1;stroke:none;stroke-width:1.25;stroke-linecap:butt;stroke-linejoin:miter;stroke-miterlimit:10;stroke-dasharray:none;stroke-opacity:1" d="m -1334.0234,-314.10094 c -38.6541,0 -77.3074,7.68773 -113.0188,22.48003 -35.7114,14.7923 -68.48,36.68874 -95.8125,64.02009 -27.3314,27.3325 -49.2278,60.10293 -64.0201,95.81436 -14.7923,35.711429 -22.4818,74.362922 -22.4818,113.01693 0,38.654008 7.6895,77.307296 22.4818,113.018727 14.7923,35.711433 36.6887,68.481863 64.0201,95.814363 27.3325,27.33135 60.1011,49.22778 95.8125,64.02008 35.7114,14.79231 74.3647,22.48004 113.0188,22.48004 38.654,0 77.3073,-7.68773 113.0187,-22.48004 35.7114,-14.7923 68.4818,-36.68873 95.8143,-64.02008 27.3314,-27.3325 49.2278,-60.10114 64.0202,-95.812568 14.7923,-35.711428 22.4799,-74.366514 22.4799,-113.020522 0,-38.654008 -7.6877,-77.306652 -22.4799,-113.01693 -14.7924,-35.71143 -36.6888,-68.48186 -64.0202,-95.81436 -27.3324,-27.33135 -60.1029,-49.22779 -95.8143,-64.02009 -35.7114,-14.7923 -74.3647,-22.48003 -113.0187,-22.48003 z m 0,23.70635 c 35.5514,0 71.1024,7.07004 103.9472,20.67472 32.8448,13.60468 62.9841,33.74495 88.122,58.88288 25.1379,25.13794 45.2764,55.27722 58.8811,88.12202 13.6046,32.844805 20.6765,68.393972 20.6765,103.94544 0,35.551468 -7.0719,71.102433 -20.6765,103.947234 -13.6047,32.844796 -33.7432,62.984086 -58.8811,88.122026 -25.1379,25.13793 -55.2772,45.27639 -88.122,58.88107 -32.8448,13.60468 -68.3958,20.67653 -103.9472,20.67653 -35.5515,0 -71.1025,-7.07185 -103.9472,-20.67653 -32.8449,-13.60468 -62.9842,-33.74314 -88.1221,-58.88107 -25.1379,-25.13794 -45.2764,-55.27723 -58.881,-88.122026 -13.6047,-32.844801 -20.6766,-68.395766 -20.6766,-103.947234 0,-35.551468 7.0719,-71.100635 20.6766,-103.94544 13.6046,-32.8448 33.7431,-62.98408 58.881,-88.12202 25.1379,-25.13793 55.2772,-45.2782 88.1221,-58.88288 32.8447,-13.60468 68.3957,-20.67472 103.9472,-20.67472 z" id="path5549" inkscape:connector-curvature="0"/>
    <path style="fill:#8a6c65;fill-opacity:1;stroke:none;stroke-width:1.25;stroke-linecap:butt;stroke-linejoin:miter;stroke-miterlimit:10;stroke-dasharray:none;stroke-opacity:1" d="m -1334.0234,-350.1981 c -21.6914,0 -43.3838,2.13631 -64.6585,6.36893 -21.2748,4.23146 -42.1323,10.5586 -62.1734,18.86043 -20.0399,8.30067 -39.2623,18.57502 -57.2987,30.62728 -18.0364,12.05111 -34.886,25.87863 -50.2249,41.2164 -15.3378,15.33892 -29.1654,32.18856 -41.2165,50.22495 -12.0522,18.03639 -22.3265,37.25881 -30.6272,57.29873 -8.3018,20.04107 -14.6291,40.89871 -18.8605,62.17343 -4.2326,21.274722 -6.3689,42.967111 -6.3689,64.65842 0,21.6913092 2.1363,43.383698 6.3689,64.65842 4.2314,21.274722 10.5587,42.134151 18.8605,62.17523 8.3007,20.03992 18.575,39.26234 30.6272,57.29873 12.0511,18.03639 25.8787,34.88422 41.2165,50.22315 15.3389,15.33777 32.1885,29.16708 50.2249,41.21819 18.0364,12.05227 37.2588,22.32662 57.2987,30.62729 20.0411,8.30183 40.8986,14.62896 62.1734,18.86043 21.2747,4.23262 42.9671,6.36713 64.6585,6.36713 21.6913,0 43.3836,-2.13451 64.6584,-6.36713 21.2747,-4.23147 42.1324,-10.55859 62.1734,-18.86043 20.0399,-8.30067 39.2641,-18.57502 57.3005,-30.62729 18.0364,-12.05111 34.8844,-25.88042 50.2232,-41.21819 15.3378,-15.33893 29.1653,-32.18676 41.2164,-50.22315 12.0523,-18.03639 22.3267,-37.25881 30.6273,-57.29873 8.3019,-20.041079 14.6289,-40.900508 18.8604,-62.17523 4.2326,-21.274722 6.3689,-42.9671108 6.3689,-64.65842 0,-21.691309 -2.1363,-43.383698 -6.3689,-64.65842 -4.2315,-21.27472 -10.5585,-42.13236 -18.8604,-62.17343 -8.3006,-20.03992 -18.575,-39.26234 -30.6273,-57.29873 -12.0511,-18.03639 -25.8786,-34.88602 -41.2164,-50.22495 -15.3388,-15.33778 -32.1868,-29.16529 -50.2232,-41.2164 -18.0364,-12.05226 -37.2606,-22.32661 -57.3005,-30.62728 -20.041,-8.30183 -40.8987,-14.62897 -62.1734,-18.86043 -21.2748,-4.23262 -42.9671,-6.36893 -64.6584,-6.36893 z m 0,6.32037 c 21.2782,0 42.5571,2.09395 63.4267,6.24486 20.8685,4.15206 41.3288,10.35958 60.9866,18.5026 19.6591,8.14302 38.5151,18.22196 56.2074,30.04291 17.6923,11.8221 34.221,25.38514 49.2664,40.43062 15.0455,15.04547 28.6103,31.57425 40.4325,49.26655 11.8209,17.6923 21.8999,36.54827 30.0429,56.20728 8.143,19.65786 14.3487,40.11997 18.5008,60.988467 4.1509,20.869643 6.2467,42.146738 6.2467,63.424913 0,21.2781742 -2.0958,42.557068 -6.2467,63.426711 -4.1521,20.868492 -10.3578,41.328812 -18.5008,60.986669 -8.143,19.65901 -18.222,38.51497 -30.0429,56.20728 -11.8222,17.6923 -25.387,34.22108 -40.4325,49.26656 -15.0454,15.04547 -31.5741,28.61031 -49.2664,40.43241 -17.6923,11.82096 -36.5483,21.89989 -56.2074,30.04291 -19.6578,8.14301 -40.1181,14.34874 -60.9866,18.5008 -20.8696,4.15091 -42.1485,6.24666 -63.4267,6.24666 -21.2782,0 -42.5571,-2.09575 -63.4268,-6.24666 -20.8685,-4.15206 -41.3288,-10.35779 -60.9866,-18.5008 -19.659,-8.14302 -38.515,-18.22195 -56.2073,-30.04291 -17.6923,-11.8221 -34.2211,-25.38694 -49.2665,-40.43241 -15.0455,-15.04548 -28.6104,-31.57426 -40.4325,-49.26656 -11.8209,-17.6923 -21.898,-36.54827 -30.041,-56.20728 -8.143,-19.657857 -14.3506,-40.118177 -18.5027,-60.986669 -4.1508,-20.869643 -6.2467,-42.1485367 -6.2467,-63.426711 0,-21.278175 2.0959,-42.55527 6.2467,-63.424913 4.1521,-20.868497 10.3597,-41.330607 18.5027,-60.988467 8.143,-19.65901 18.2201,-38.51498 30.041,-56.20728 11.8221,-17.6923 25.387,-34.22108 40.4325,-49.26655 15.0454,-15.04548 31.5742,-28.60851 49.2665,-40.43062 17.6923,-11.82095 36.5483,-21.89989 56.2073,-30.04291 19.6578,-8.14302 40.1181,-14.35054 60.9866,-18.5026 20.8697,-4.15091 42.1486,-6.24486 63.4268,-6.24486 z" id="path5551" inkscape:connector-curvature="0"/>
    <path inkscape:connector-curvature="0" id="path5555" style="fill:url(#linearGradient6158);fill-opacity:1;stroke:none;stroke-width:1.25;stroke-linecap:butt;stroke-linejoin:miter;stroke-miterlimit:10;stroke-dasharray:none;stroke-opacity:0.61840958" d="m -1397.6644,-162.62283 c -10.2916,13.09488 -19.4185,31.72853 -26.2439,50.75575 l 162.1871,0 c -6.5077,-18.30452 -14.8176,-36.27071 -23.6776,-49.95825 l -112.2656,-0.7975 z"/>
    <path inkscape:connector-curvature="0" id="path5557" style="fill:url(#linearGradient6150);fill-opacity:1;stroke:none;stroke-width:1.25;stroke-linecap:butt;stroke-linejoin:miter;stroke-miterlimit:10;stroke-dasharray:none;stroke-opacity:1" d="m -1428.1167,-99.146205 c -0.3626,1.196825 -0.7147,2.391349 -1.0576,3.580119 -7.9255,27.551151 -10.234,52.797262 -9.143,79.755754 1.0909,26.959642 5.5813,55.631666 13.9637,83.635079 6.457,21.573928 15.225,42.751983 25.5476,56.081623 l 114.6846,0 c 7.4284,-14.22266 14.5219,-31.843608 20.2943,-48.904123 10.8842,-32.169286 17.0732,-62.347699 17.9225,-91.774643 0.8009,-27.760595 -3.1498,-54.85373 -11.6012,-82.373809 l -170.6109,0 z"/>
    <path style="fill:#8a6c65;fill-opacity:1;stroke:none;stroke-width:1.25;stroke-linecap:butt;stroke-linejoin:miter;stroke-miterlimit:10;stroke-dasharray:none;stroke-opacity:1" d="m -1420.6962,-191.05773 c -0.082,0.10127 -0.1643,0.20262 -0.2463,0.30389 -7.6044,9.41349 -14.2254,20.27713 -20.1047,31.88058 -5.8806,11.60345 -10.9873,23.94377 -15.2211,36.2446 -4.2326,12.30199 -7.5445,24.425314 -9.9669,36.30035 -4.8449,23.748928 -6.1709,46.741354 -5.1858,70.273934 0.9851,23.5325787 4.261,48.080374 10.0874,72.634858 2.9127,12.276666 6.4628,24.584333 10.6988,36.694131 4.2372,12.110947 9.1316,23.911187 14.8039,34.667657 2.8367,5.37881 5.8702,10.49899 9.1775,15.28399 2.9553,4.27519 6.1242,8.28837 9.6433,11.96286 l 153.3127,0 c 2.2487,-3.72743 4.4296,-7.64516 6.5631,-11.72012 6.4295,-12.28587 12.4077,-26.01535 17.7313,-39.90197 0.8262,-2.15544 1.6357,-4.311743 2.4274,-6.466029 2.358,0.537421 4.7197,0.903668 7.0558,1.100454 5.037,0.425793 10.3256,0.09716 15.5663,-1.066289 5.2419,-1.163452 10.4244,-3.153533 15.3326,-5.863652 9.815,-5.421388 18.4914,-13.696672 25.5745,-23.632624 7.0831,-9.937103 12.6003,-21.548036 16.4923,-33.50248 3.8909,-11.954445 6.1557,-24.2066573 7.1224,-35.6674111 0.9667,-11.4607539 0.7868,-23.9165129 -1.0465,-36.3542899 -1.8343,-12.437778 -5.3277,-24.808306 -10.6467,-35.791481 -5.3177,-10.983174 -12.4858,-20.594312 -21.2537,-27.583078 -4.3845,-3.49496 -9.1605,-6.32326 -14.1332,-8.34865 -4.9725,-2.0254 -10.1319,-3.23633 -15.1689,-3.66097 -4.5894,-0.38667 -9.3876,-0.14845 -14.1691,0.77678 -2.1497,-6.93123 -4.5428,-13.85339 -7.1655,-20.74664 -4.846,-12.73584 -10.4326,-25.24453 -16.5732,-36.75707 -3.5271,-6.61131 -7.2191,-12.8909 -11.1249,-18.72198 l -16.3665,10.95771 c 11.5217,17.20897 22.2289,40.55671 29.9979,63.59214 10.8623,32.207266 15.9821,63.804968 15.0143,96.229728 -0.9679,32.424762 -8.0222,65.676801 -20.4266,101.122396 -6.5791,18.797066 -14.6628,38.212606 -23.1291,53.884116 l -130.7014,0 c -11.7646,-14.68758 -21.7576,-38.022079 -29.1169,-61.794024 -9.5527,-30.85508 -14.6686,-62.447314 -15.9115,-92.151599 -1.244,-29.704286 1.3875,-57.520695 10.42,-87.877477 7.9394,-26.68461 20.8267,-55.3303 35.9102,-73.88456 l -15.2732,-12.41778 z m 203.5178,98.545702 c 3.5196,-0.07989 7.0844,0.450464 10.4256,1.551774 5.9391,1.956349 11.172,5.716783 15.5105,10.247458 5.4363,5.676865 9.4716,12.562639 12.5419,19.779266 3.6894,8.67123 5.9844,17.818241 7.2733,27.099392 1.2912,9.301864 1.5693,18.737869 0.9387,28.1099325 -0.6307,9.3720635 -2.1687,18.6809775 -4.659,27.7377235 -2.4857,9.041785 -5.9186,17.833489 -10.5747,26.01333 -3.8748,6.810397 -8.5989,13.198381 -14.4334,18.454055 -4.6584,4.196945 -10.0242,7.672413 -16.0141,9.510231 -4.4904,1.3775 -9.3295,1.835085 -13.9407,1.140005 1.5869,-4.964523 3.0711,-9.900134 4.4521,-14.812872 7.6228,-27.104643 12.0834,-53.5126961 12.8636,-79.669085 0.755,-25.25877 -1.9452,-50.131592 -7.8775,-74.877107 1.1531,-0.1637 2.3206,-0.257473 3.4937,-0.284103 z" id="path5559" inkscape:connector-curvature="0"/>
  </g>
</svg>